<svg xmlns="http://www.w3.org/2000/svg" viewBox="0 0 360.3 205" enable-background="new 0 0 360.3 205"><style type="text/css">.st0{fill:#F0FCF8;}</style><path class="st0" d="M87.7 66.7c-1-.3-2.9-.5-5.7-.6v23.6c1.2 0 2.1-.1 2.8-.1 2.7 0 4.4-.7 5.2-2 .7-1.3 1.1-5.1 1.1-11.4 0-3.3-.3-5.6-.9-7-.7-1.3-1.5-2.1-2.5-2.5z"/><path class="st0" d="M159.8 63.7c-1.4 0-2.5.6-3.3 1.7s-1.1 4.4-1.1 9.9v49.5c0 6.2.2 10 .8 11.4.5 1.4 1.7 2.2 3.5 2.2 1.9 0 3.1-.8 3.6-2.5s.8-5.6.8-11.9v-48.7c0-4.9-.3-8.1-.8-9.5-.7-1.4-1.8-2.1-3.5-2.1z"/><path class="st0" d="M82 106.2v29.7c3.9-.1 6.4-.7 7.4-1.8 1.1-1.1 1.6-3.8 1.6-8.1v-9.9c0-4.5-.5-7.3-1.4-8.3-1-.9-3.5-1.4-7.6-1.6z"/><path class="st0" d="M334.4 99.4c-2.2-3.3-5.7-6.7-10.8-10.5h14.8v-13c0-10-1-16.8-3.3-21.6-2.5-5.4-7.4-9.8-14.3-13-6.2-2.8-13.6-4.3-22-4.3-7.8 0-14.7 1.3-20.4 4-6 2.7-10.5 6.7-13.5 11.7-2.7-4.7-7.2-8.5-13.5-11.4-6.2-2.8-13.6-4.3-22-4.3-7.8 0-14.7 1.3-20.4 4-6.4 2.9-11.1 7.1-14.1 12.5l-.4.7c-.5-.9-1.1-1.7-1.7-2.6-3.7-5-8.6-8.8-14.6-11.2-5.6-2.3-11.8-3.4-18.6-3.4-7.2 0-13.6 1.2-19.2 3.7-5.9 2.6-10.8 6.4-14.3 11.4-1.5 2-2.7 4.2-3.7 6.4-.7-1.9-1.6-3.6-2.6-5.1-3.9-5.8-9.1-9.8-15.6-11.7-5.4-1.6-12.6-2.4-22.3-2.4h-60.6v123.6h65c16.1 0 21.8-1.3 24.9-2.4 5.8-2 10.2-6 12.8-11.6l.5-1.2c.6.9 1.1 1.8 1.8 2.7 3.7 5 8.6 8.8 14.6 11.2 5.6 2.3 11.8 3.4 18.6 3.4 7.2 0 13.6-1.2 19.2-3.7 5.9-2.6 10.8-6.4 14.3-11.4.8-1.2 1.6-2.3 2.3-3.6 2.6 5.5 7.1 10 13.5 13.4 6.5 3.5 14.2 5.2 23 5.2 8 0 15.2-1.5 21.5-4.5 6-2.8 10.4-6.5 13.2-11 2.7 4.1 6.6 7.5 11.7 10.2 6.5 3.5 14.2 5.2 23 5.2 8 0 15.2-1.5 21.5-4.5 6.9-3.3 11.7-7.7 14.3-13 2.4-4.9 3.6-11.6 3.6-20.6.1-12.1-1.9-21.1-6.2-27.3zm-286.3 54.9h-18.9v-106.3h18.9v106.3zm70.5-25.1c0 7.2-.8 12.5-2.5 15.9-1.6 3.5-4.2 5.8-7.8 7.1-3.6 1.3-10.9 1.9-22 1.9h-31.9v-106.1h27.5c8.7 0 15.3.7 19.8 2 4.5 1.4 8.1 4.1 10.8 8.2 2.8 4.1 4.1 10.8 4.1 19.9 0 6.2-1 10.5-2.9 13-1.9 2.4-5.8 4.3-11.5 5.6 6.4 1.4 10.7 3.8 13 7.2 2.3 3.3 3.4 8.5 3.4 15.4v9.9zm73-19.1c0 10.7-.3 18.2-.8 22.6s-2.1 8.5-4.7 12.2c-2.6 3.7-6.2 6.5-10.7 8.5s-9.7 2.9-15.7 2.9c-5.7 0-10.8-.9-15.3-2.8s-8.2-4.6-10.9-8.4c-2.8-3.7-4.4-7.8-4.9-12.1-.5-4.4-.8-12-.8-22.9v-18.1c0-10.7.3-18.2.8-22.6s2.1-8.5 4.7-12.2c2.6-3.7 6.2-6.5 10.7-8.5s9.7-2.9 15.7-2.9c5.7 0 10.8.9 15.3 2.8s8.2 4.6 10.9 8.4c2.8 3.7 4.4 7.8 4.9 12.1.5 4.4.8 12 .8 22.9v18.1zm68.3 33.6c-1.8 3.6-5.2 6.6-10.3 9s-11 3.6-17.7 3.6c-7.4 0-13.7-1.4-18.9-4.2s-8.6-6.4-10.3-10.7c-1.6-4.3-2.4-10.5-2.4-18.4v-6.9h25.7v12.9c0 4 .4 6.5 1.1 7.7.7 1.1 2 1.7 3.8 1.7s3.2-.7 4.1-2.2c.9-1.4 1.3-3.6 1.3-6.4 0-6.2-.9-10.3-2.6-12.3-1.7-1.9-6.1-5.1-12.9-9.6-6.9-4.5-11.4-7.8-13.6-9.9-2.2-2.1-4.1-4.9-5.5-8.5-1.5-3.6-2.2-8.3-2.2-13.9 0-8.1 1-14.1 3.1-17.8 2.1-3.8 5.4-6.7 10.1-8.8 4.6-2.1 10.2-3.2 16.8-3.2 7.2 0 13.3 1.2 18.3 3.5s8.4 5.2 10 8.7 2.5 9.5 2.5 17.9v4.2h-25.6v-7.9c0-3.7-.3-6-1-7s-1.7-1.5-3.3-1.5c-1.7 0-2.9.7-3.8 2-.9 1.4-1.3 3.4-1.3 6.2 0 3.5.5 6.2 1.4 8s3.5 4 7.8 6.5c12.3 7.3 20 13.3 23.2 17.9 3.2 4.7 4.8 12.2 4.8 22.6.1 7.6-.8 13.2-2.6 16.8zm-59.6-36.4v-3.9l1 1c.9.8 2 1.8 3.5 2.9h-4.5zm64.8-7.9c-2.2-3.3-5.7-6.7-10.8-10.5h7.5c.4 1.4.8 2.7 1.3 3.9 1.9 4.8 4.5 8.8 7.7 11.7.9.8 2 1.8 3.5 2.9h-5.4c-1.1-3.1-2.3-5.7-3.8-8zm64.2 44.3c-1.8 3.6-5.2 6.6-10.3 9-5.1 2.4-11 3.6-17.7 3.6-7.4 0-13.7-1.4-18.9-4.2-5.2-2.8-8.6-6.4-10.3-10.7-1.6-4.3-2.4-10.5-2.4-18.4v-6.9h25.6v12.9c0 4 .4 6.5 1.1 7.7.7 1.1 2 1.7 3.8 1.7s3.2-.7 4.1-2.2c.9-1.4 1.3-3.6 1.3-6.4 0-6.2-.9-10.3-2.6-12.3-1.7-1.9-6.1-5.1-12.9-9.6-6.9-4.5-11.4-7.8-13.6-9.9s-4.1-4.9-5.5-8.5c-1.5-3.6-2.2-8.3-2.2-13.9 0-8.1 1-14.1 3.1-17.8 2.1-3.8 5.4-6.7 10.1-8.8 4.6-2.1 10.2-3.2 16.8-3.2 7.2 0 13.3 1.2 18.3 3.5s8.4 5.2 10 8.7 2.5 9.5 2.5 17.9v4.2h-25.6v-7.9c0-3.7-.3-6-1-7s-1.7-1.5-3.3-1.5c-1.7 0-2.9.7-3.8 2-.9 1.4-1.3 3.4-1.3 6.2 0 3.5.5 6.2 1.4 8s3.5 4 7.8 6.5c12.3 7.3 20 13.3 23.2 17.9 3.2 4.7 4.8 12.2 4.8 22.6.2 7.6-.7 13.2-2.5 16.8z"/><path class="st0" d="M32.1 149v-2.6c0-1.7.1-2.9.2-3.5.2-.6.4-1.1.8-1.4s.8-.5 1.2-.6 1.3-.1 2.6-.1h4.8c1.2 0 2 .1 2.4.2.4.1.7.3 1 .6.2.3.4.6.5 1.1.1.4.1 1.1.1 1.9v4.4h-13.6zm2.3-3.5h8.9c0-.5-.1-.8-.3-.9-.2-.1-.8-.2-1.7-.2h-5.3c-.6 0-1 0-1.2.1-.2 0-.3.1-.4.3.1 0 0 .3 0 .7z"/><path class="st0" d="M32.1 138.5v-2.5c0-1.7.1-2.8.2-3.4.1-.6.5-1.1 1-1.4.5-.4 1.4-.6 2.5-.6s1.8.1 2.1.4c.4.3.6.8.7 1.6.2-.7.4-1.2.7-1.4s.6-.4.8-.4c.2-.1.9-.1 2-.1h3.6v3.3h-4.5c-.7 0-1.2.1-1.3.2-.2.1-.3.4-.3.9h6.1v3.5h-13.6v-.1zm2.3-3.5h3c0-.4-.1-.7-.2-.8-.1-.2-.5-.2-1.1-.2h-.7c-.4 0-.7.1-.8.2-.1.1-.2.4-.2.8z"/><path class="st0" d="M32.1 124.7h13.6v3.5h-13.6v-3.5z"/><path class="st0" d="M32.1 114.4h13.6v3.1l-6.2 1.8h6.2v3h-13.6v-3l6.1-2h-6.1v-2.9z"/><path class="st0" d="M32.1 103.5l6.1 2 7.4-2.2v3.6l-5.8 1.4h5.8v3.5h-13.5v-3.5h5.3l-5.3-1.6v-3.2z"/><path class="st0" d="M32.1 94.1h10.9v-2.1h2.7v5.7h-13.6v-3.6z"/><path class="st0" d="M32.1 86.5h13.6v3.5h-13.6v-3.5z"/><path class="st0" d="M32.1 75.7l6.1 2 7.4-2.2v3.6l-5.8 1.4h5.8v3.5h-13.5v-3.5h5.3l-5.3-1.5v-3.3z"/><path class="st0" d="M32.1 73.9v-5.9h2.7v2.4h2.6v-2.2h2.6v2.2h3v-2.6h2.7v6.1h-13.6z"/><path class="st0" d="M32.1 55.5l13.6-2v3.6l-2.4.2v1.3l2.4.2v3.6l-13.6-1.8v-5.1zm8.7 1.9c-1.5.2-3.4.4-5.7.5 2.6.4 4.5.6 5.7.7v-1.2z"/><path class="st0" d="M21.9 173.9v2.7h3v.9h-3v4.5h-1v-9h4.1v.9h-3.1z"/><path class="st0" d="M31.3 181.1h2.5v.9h-3.5v-9h1v8.1z"/><path class="st0" d="M39.7 179.4l-1.1 2.6h-1.1l4.2-9.5 4.1 9.5h-1.1l-1.1-2.6h-3.9zm2-4.5l-1.5 3.6h3.1l-1.6-3.6z"/><path class="st0" d="M52 179.8l2.6-6.9h1.1l-3.7 9.6-3.7-9.6h1.1l2.6 6.9z"/><path class="st0" d="M69.2 177.5c0 2.6-2.1 4.7-4.7 4.7s-4.7-2.1-4.7-4.7 2.1-4.7 4.7-4.7 4.7 2.1 4.7 4.7zm-8.4 0c0 2 1.7 3.7 3.7 3.7 2.1 0 3.7-1.7 3.7-3.7 0-2.1-1.6-3.7-3.7-3.7-2.1-.1-3.7 1.6-3.7 3.7z"/><path class="st0" d="M75.2 182h-1v-9h1.3c1.7 0 3.3.5 3.3 2.5 0 1.4-.9 2.4-2.3 2.5l2.9 4.1h-1.2l-2.7-4h-.3v3.9zm0-4.9h.3c1.1 0 2.3-.2 2.3-1.6 0-1.5-1.1-1.6-2.3-1.6h-.3v3.2z"/><path class="st0" d="M84.3 173h4.7v.9h-3.7v2.7h3.6v.9h-3.6v3.5h3.7v.9h-4.7v-8.9z"/><path class="st0" d="M94.3 173h1.7c1.4 0 2.5.2 3.5 1.1 1 .9 1.5 2.1 1.5 3.4 0 1.3-.5 2.5-1.5 3.4-1.1 1-2.2 1.1-3.6 1.1h-1.7v-9zm1.7 8.1c1.1 0 2-.2 2.9-.9.7-.7 1.1-1.6 1.1-2.7 0-1-.4-2-1.2-2.7-.8-.7-1.7-.9-2.8-.9h-.7v7.2h.7z"/><path class="st0" d="M114.5 172.4l3.3 7.6 3.3-7.6 1.8 9.6h-1l-1.2-6.1-2.9 6.5-2.9-6.5-1.2 6.1h-1l1.8-9.6z"/><path class="st0" d="M129 179.4l-1.1 2.6h-1.1l4.2-9.5 4.1 9.5h-1.1l-1.1-2.6h-3.9zm2-4.5l-1.5 3.6h3.1l-1.6-3.6z"/><path class="st0" d="M140.7 181.1h2.5v.9h-3.5v-9h1v8.1z"/><path class="st0" d="M149.2 182h-1v-8.1h-2.2v-.9h5.4v.9h-2.2v8.1z"/><path class="st0" d="M163.3 173h1.5c1.6 0 3 .6 3 2.4 0 .7-.3 1.4-.9 1.8 1.1.3 1.7 1.2 1.7 2.3 0 1.8-1.5 2.5-3.2 2.5h-2.1v-9zm1 3.9h.4c1.1 0 2.1-.1 2.1-1.5s-.9-1.5-2.1-1.5h-.4v3zm0 4.2h1c1.1 0 2.3-.3 2.3-1.7s-1.3-1.6-2.4-1.6h-.9v3.3z"/><path class="st0" d="M173.7 173h4.7v.9h-3.7v2.7h3.6v.9h-3.6v3.5h3.7v.9h-4.7v-8.9z"/><path class="st0" d="M186.6 179.8l2.6-6.9h1.1l-3.7 9.6-3.7-9.6h1.1l2.6 6.9z"/><path class="st0" d="M194.8 173h4.7v.9h-3.7v2.7h3.6v.9h-3.6v3.5h3.7v.9h-4.7v-8.9z"/><path class="st0" d="M205.9 182h-1v-9h1.3c1.7 0 3.3.5 3.3 2.5 0 1.4-.9 2.4-2.3 2.5l2.9 4.1h-1.2l-2.7-4h-.3v3.9zm0-4.9h.3c1.1 0 2.3-.2 2.3-1.6 0-1.5-1.1-1.6-2.3-1.6h-.3v3.2z"/><path class="st0" d="M216.3 179.4l-1.1 2.6h-1.1l4.2-9.5 4.1 9.5h-1.1l-1.1-2.6h-3.9zm2-4.5l-1.5 3.6h3.1l-1.6-3.6z"/><path class="st0" d="M235.3 177.5c0 1.2-.1 2.2-.9 3.2s-2.1 1.5-3.3 1.5c-2.5 0-4.7-2.1-4.7-4.7s2.1-4.7 4.7-4.7c1.6 0 2.9.7 3.8 2l-.7.7c-.8-1.1-1.8-1.7-3.1-1.7-2.1 0-3.7 1.7-3.7 3.8 0 1 .4 1.9 1.1 2.6.7.7 1.6 1.2 2.6 1.2 1.6 0 3.2-1.2 3.2-2.8h-2.7v-.9h3.7z"/><path class="st0" d="M240.4 173h4.7v.9h-3.7v2.7h3.6v.9h-3.6v3.5h3.7v.9h-4.7v-8.9z"/><path class="st0" d="M261.8 174.7c-.4-.6-.8-1-1.6-1s-1.5.6-1.5 1.4c0 .8.8 1.1 1.4 1.4l.6.3c1.2.5 2.2 1.1 2.2 2.5 0 1.6-1.3 2.8-2.8 2.8-1.5 0-2.5-.9-2.8-2.3l1-.3c.1.9.8 1.7 1.8 1.7s1.9-.7 1.9-1.8-.8-1.4-1.7-1.8l-.6-.2c-1.1-.5-2-1-2-2.3 0-1.4 1.2-2.3 2.5-2.3 1 0 1.9.5 2.3 1.4l-.7.5z"/><path class="st0" d="M269 182h-1v-9h1.5c.8 0 1.6 0 2.2.5.7.5 1 1.3 1 2.1 0 .7-.3 1.5-.9 1.9-.6.5-1.4.6-2.1.6h-.7v3.9zm0-4.9h.7c1.1 0 2.1-.3 2.1-1.6 0-1.5-1.2-1.6-2.4-1.6h-.4v3.2z"/><path class="st0" d="M277.6 173h4.7v.9h-3.7v2.7h3.6v.9h-3.6v3.5h3.7v.9h-4.7v-8.9z"/><path class="st0" d="M294.5 174.9c-.7-.7-1.7-1.2-2.8-1.2-2 0-3.6 1.8-3.6 3.7s1.6 3.7 3.7 3.7c1 0 2-.5 2.7-1.2v1.2c-.8.6-1.7.9-2.7.9-2.6 0-4.7-2.1-4.7-4.6 0-2.6 2.1-4.7 4.7-4.7 1 0 1.9.3 2.7.9v1.3z"/><path class="st0" d="M300.9 182h-1v-9h1v9z"/><path class="st0" d="M307.7 179.4l-1.1 2.6h-1.1l4.2-9.5 4.1 9.5h-1.1l-1.1-2.6h-3.9zm1.9-4.5l-1.5 3.6h3.1l-1.6-3.6z"/><path class="st0" d="M319.3 181.1h2.5v.9h-3.5v-9h1v8.1z"/><path class="st0" d="M327.8 182h-1v-8.1h-2.2v-.9h5.4v.9h-2.2v8.1z"/><path class="st0" d="M333.9 173h1.2l2.3 4 2.3-4h1.2l-3 5.2v3.9h-1v-3.9l-3-5.2z"/></svg>