<?xml version="1.0" encoding="utf-8"?>
<!-- Generator: Adobe Illustrator 20.0.0, SVG Export Plug-In . SVG Version: 6.00 Build 0)  -->
<svg version="1.1" id="Layer_1" xmlns="http://www.w3.org/2000/svg" xmlns:xlink="http://www.w3.org/1999/xlink" x="0px" y="0px"
	 viewBox="0 0 360.3 205" style="enable-background:new 0 0 360.3 205;" xml:space="preserve">
<style type="text/css">
	.st0{fill:#F0FCF8;}
</style>
<g>
	<g>
		<path class="st0" d="M87.7,66.7c-1-0.3-2.9-0.5-5.7-0.6v23.6c1.2,0,2.1-0.1,2.8-0.1c2.7,0,4.4-0.7,5.2-2c0.7-1.3,1.1-5.1,1.1-11.4
			c0-3.3-0.3-5.6-0.9-7C89.5,67.9,88.7,67.1,87.7,66.7z"/>
		<path class="st0" d="M159.8,63.7c-1.4,0-2.5,0.6-3.3,1.7s-1.1,4.4-1.1,9.9v49.5c0,6.2,0.2,10,0.8,11.4c0.5,1.4,1.7,2.2,3.5,2.2
			c1.9,0,3.1-0.8,3.6-2.5s0.8-5.6,0.8-11.9V75.3c0-4.9-0.3-8.1-0.8-9.5C162.6,64.4,161.5,63.7,159.8,63.7z"/>
		<path class="st0" d="M82,106.2v29.7c3.9-0.1,6.4-0.7,7.4-1.8c1.1-1.1,1.6-3.8,1.6-8.1v-9.9c0-4.5-0.5-7.3-1.4-8.3
			C88.6,106.9,86.1,106.4,82,106.2z"/>
		<path class="st0" d="M334.4,99.4c-2.2-3.3-5.7-6.7-10.8-10.5h14.8v-13c0-10-1-16.8-3.3-21.6c-2.5-5.4-7.4-9.8-14.3-13
			c-6.2-2.8-13.6-4.3-22-4.3c-7.8,0-14.7,1.3-20.4,4c-6,2.7-10.5,6.7-13.5,11.7c-2.7-4.7-7.2-8.5-13.5-11.4
			c-6.2-2.8-13.6-4.3-22-4.3c-7.8,0-14.7,1.3-20.4,4c-6.4,2.9-11.1,7.1-14.1,12.5c-0.1,0.2-0.3,0.5-0.4,0.7
			c-0.5-0.9-1.1-1.7-1.7-2.6c-3.7-5-8.6-8.8-14.6-11.2c-5.6-2.3-11.8-3.4-18.6-3.4c-7.2,0-13.6,1.2-19.2,3.7
			c-5.9,2.6-10.8,6.4-14.3,11.4c-1.5,2-2.7,4.2-3.7,6.4c-0.7-1.9-1.6-3.6-2.6-5.1c-3.9-5.8-9.1-9.8-15.6-11.7
			c-5.4-1.6-12.6-2.4-22.3-2.4H21.3v123.6h65c16.1,0,21.8-1.3,24.9-2.4c5.8-2,10.2-6,12.8-11.6c0.2-0.4,0.3-0.8,0.5-1.2
			c0.6,0.9,1.1,1.8,1.8,2.7c3.7,5,8.6,8.8,14.6,11.2c5.6,2.3,11.8,3.4,18.6,3.4c7.2,0,13.6-1.2,19.2-3.7c5.9-2.6,10.8-6.4,14.3-11.4
			c0.8-1.2,1.6-2.3,2.3-3.6c2.6,5.5,7.1,10,13.5,13.4c6.5,3.5,14.2,5.2,23,5.2c8,0,15.2-1.5,21.5-4.5c6-2.8,10.4-6.5,13.2-11
			c2.7,4.1,6.6,7.5,11.7,10.2c6.5,3.5,14.2,5.2,23,5.2c8,0,15.2-1.5,21.5-4.5c6.9-3.3,11.7-7.7,14.3-13c2.4-4.9,3.6-11.6,3.6-20.6
			C340.7,114.6,338.7,105.6,334.4,99.4z M48.1,154.3H29.2V48h18.9V154.3z M118.6,129.2c0,7.2-0.8,12.5-2.5,15.9
			c-1.6,3.5-4.2,5.8-7.8,7.1c-3.6,1.3-10.9,1.9-22,1.9H54.4V48h27.5c8.7,0,15.3,0.7,19.8,2c4.5,1.4,8.1,4.1,10.8,8.2
			c2.8,4.1,4.1,10.8,4.1,19.9c0,6.2-1,10.5-2.9,13c-1.9,2.4-5.8,4.3-11.5,5.6c6.4,1.4,10.7,3.8,13,7.2c2.3,3.3,3.4,8.5,3.4,15.4
			V129.2z M191.6,110.1c0,10.7-0.3,18.2-0.8,22.6s-2.1,8.5-4.7,12.2c-2.6,3.7-6.2,6.5-10.7,8.5s-9.7,2.9-15.7,2.9
			c-5.7,0-10.8-0.9-15.3-2.8c-4.5-1.9-8.2-4.6-10.9-8.4c-2.8-3.7-4.4-7.8-4.9-12.1c-0.5-4.4-0.8-12-0.8-22.9V92
			c0-10.7,0.3-18.2,0.8-22.6s2.1-8.5,4.7-12.2c2.6-3.7,6.2-6.5,10.7-8.5s9.7-2.9,15.7-2.9c5.7,0,10.8,0.9,15.3,2.8
			c4.5,1.9,8.2,4.6,10.9,8.4c2.8,3.7,4.4,7.8,4.9,12.1c0.5,4.4,0.8,12,0.8,22.9V110.1z M259.9,143.7c-1.8,3.6-5.2,6.6-10.3,9
			s-11,3.6-17.7,3.6c-7.4,0-13.7-1.4-18.9-4.2s-8.6-6.4-10.3-10.7c-1.6-4.3-2.4-10.5-2.4-18.4v-6.9H226V129c0,4,0.4,6.5,1.1,7.7
			c0.7,1.1,2,1.7,3.8,1.7s3.2-0.7,4.1-2.2c0.9-1.4,1.3-3.6,1.3-6.4c0-6.2-0.9-10.3-2.6-12.3c-1.7-1.9-6.1-5.1-12.9-9.6
			c-6.9-4.5-11.4-7.8-13.6-9.9c-2.2-2.1-4.1-4.9-5.5-8.5c-1.5-3.6-2.2-8.3-2.2-13.9c0-8.1,1-14.1,3.1-17.8c2.1-3.8,5.4-6.7,10.1-8.8
			c4.6-2.1,10.2-3.2,16.8-3.2c7.2,0,13.3,1.2,18.3,3.5s8.4,5.2,10,8.7s2.5,9.5,2.5,17.9v4.2h-25.6v-7.9c0-3.7-0.3-6-1-7
			s-1.7-1.5-3.3-1.5c-1.7,0-2.9,0.7-3.8,2c-0.9,1.4-1.3,3.4-1.3,6.2c0,3.5,0.5,6.2,1.4,8s3.5,4,7.8,6.5c12.3,7.3,20,13.3,23.2,17.9
			c3.2,4.7,4.8,12.2,4.8,22.6C262.6,134.5,261.7,140.1,259.9,143.7z M200.3,107.3v-3.9c0.3,0.3,0.7,0.7,1,1c0.9,0.8,2,1.8,3.5,2.9
			H200.3z M265.1,99.4c-2.2-3.3-5.7-6.7-10.8-10.5h7.5c0.4,1.4,0.8,2.7,1.3,3.9c1.9,4.8,4.5,8.8,7.7,11.7c0.9,0.8,2,1.8,3.5,2.9
			h-5.4C267.8,104.3,266.6,101.7,265.1,99.4z M329.3,143.7c-1.8,3.6-5.2,6.6-10.3,9c-5.1,2.4-11,3.6-17.7,3.6
			c-7.4,0-13.7-1.4-18.9-4.2c-5.2-2.8-8.6-6.4-10.3-10.7c-1.6-4.3-2.4-10.5-2.4-18.4v-6.9h25.6V129c0,4,0.4,6.5,1.1,7.7
			c0.7,1.1,2,1.7,3.8,1.7s3.2-0.7,4.1-2.2c0.9-1.4,1.3-3.6,1.3-6.4c0-6.2-0.9-10.3-2.6-12.3c-1.7-1.9-6.1-5.1-12.9-9.6
			c-6.9-4.5-11.4-7.8-13.6-9.9s-4.1-4.9-5.5-8.5c-1.5-3.6-2.2-8.3-2.2-13.9c0-8.1,1-14.1,3.1-17.8c2.1-3.8,5.4-6.7,10.1-8.8
			c4.6-2.1,10.2-3.2,16.8-3.2c7.2,0,13.3,1.2,18.3,3.5s8.4,5.2,10,8.7s2.5,9.5,2.5,17.9v4.2H304v-7.9c0-3.7-0.3-6-1-7
			s-1.7-1.5-3.3-1.5c-1.7,0-2.9,0.7-3.8,2c-0.9,1.4-1.3,3.4-1.3,6.2c0,3.5,0.5,6.2,1.4,8s3.5,4,7.8,6.5c12.3,7.3,20,13.3,23.2,17.9
			c3.2,4.7,4.8,12.2,4.8,22.6C332,134.5,331.1,140.1,329.3,143.7z"/>
	</g>
	<g>
		<path class="st0" d="M32.1,149v-2.6c0-1.7,0.1-2.9,0.2-3.5c0.2-0.6,0.4-1.1,0.8-1.4s0.8-0.5,1.2-0.6s1.3-0.1,2.6-0.1h4.8
			c1.2,0,2,0.1,2.4,0.2c0.4,0.1,0.7,0.3,1,0.6c0.2,0.3,0.4,0.6,0.5,1.1c0.1,0.4,0.1,1.1,0.1,1.9v4.4L32.1,149L32.1,149z M34.4,145.5
			h8.9c0-0.5-0.1-0.8-0.3-0.9c-0.2-0.1-0.8-0.2-1.7-0.2H36c-0.6,0-1,0-1.2,0.1c-0.2,0-0.3,0.1-0.4,0.3
			C34.5,144.8,34.4,145.1,34.4,145.5z"/>
		<path class="st0" d="M32.1,138.5V136c0-1.7,0.1-2.8,0.2-3.4c0.1-0.6,0.5-1.1,1-1.4c0.5-0.4,1.4-0.6,2.5-0.6s1.8,0.1,2.1,0.4
			c0.4,0.3,0.6,0.8,0.7,1.6c0.2-0.7,0.4-1.2,0.7-1.4s0.6-0.4,0.8-0.4c0.2-0.1,0.9-0.1,2-0.1h3.6v3.3h-4.5c-0.7,0-1.2,0.1-1.3,0.2
			c-0.2,0.1-0.3,0.4-0.3,0.9h6.1v3.5H32.1V138.5z M34.4,135h3c0-0.4-0.1-0.7-0.2-0.8c-0.1-0.2-0.5-0.2-1.1-0.2h-0.7
			c-0.4,0-0.7,0.1-0.8,0.2C34.5,134.3,34.4,134.6,34.4,135z"/>
		<path class="st0" d="M32.1,124.7h13.6v3.5H32.1V124.7z"/>
		<path class="st0" d="M32.1,114.4h13.6v3.1l-6.2,1.8h6.2v3H32.1v-3l6.1-2h-6.1V114.4z"/>
		<path class="st0" d="M32.1,103.5l6.1,2l7.4-2.2v3.6l-5.8,1.4h5.8v3.5H32.1v-3.5h5.3l-5.3-1.6V103.5z"/>
		<path class="st0" d="M32.1,94.1H43V92h2.7v5.7H32.1V94.1z"/>
		<path class="st0" d="M32.1,86.5h13.6V90H32.1V86.5z"/>
		<path class="st0" d="M32.1,75.7l6.1,2l7.4-2.2v3.6l-5.8,1.4h5.8V84H32.1v-3.5h5.3L32.1,79V75.7z"/>
		<path class="st0" d="M32.1,73.9V68h2.7v2.4h2.6v-2.2H40v2.2h3v-2.6h2.7v6.1H32.1z"/>
		<path class="st0" d="M32.1,55.5l13.6-2v3.6l-2.4,0.2v1.3l2.4,0.2v3.6l-13.6-1.8V55.5z M40.8,57.4c-1.5,0.2-3.4,0.4-5.7,0.5
			c2.6,0.4,4.5,0.6,5.7,0.7V57.4z"/>
	</g>
</g>
<g>
	<path class="st0" d="M21.9,173.9v2.7h3v0.9h-3v4.5h-1v-9H25v0.9H21.9z"/>
	<path class="st0" d="M31.3,181.1h2.5v0.9h-3.5v-9h1V181.1z"/>
	<path class="st0" d="M39.7,179.4l-1.1,2.6h-1.1l4.2-9.5l4.1,9.5h-1.1l-1.1-2.6H39.7z M41.7,174.9l-1.5,3.6h3.1L41.7,174.9z"/>
	<path class="st0" d="M52,179.8l2.6-6.9h1.1l-3.7,9.6l-3.7-9.6h1.1L52,179.8z"/>
	<path class="st0" d="M69.2,177.5c0,2.6-2.1,4.7-4.7,4.7s-4.7-2.1-4.7-4.7c0-2.6,2.1-4.7,4.7-4.7S69.2,174.9,69.2,177.5z
		 M60.8,177.5c0,2,1.7,3.7,3.7,3.7c2.1,0,3.7-1.7,3.7-3.7c0-2.1-1.6-3.7-3.7-3.7C62.4,173.7,60.8,175.4,60.8,177.5z"/>
	<path class="st0" d="M75.2,182h-1v-9h1.3c1.7,0,3.3,0.5,3.3,2.5c0,1.4-0.9,2.4-2.3,2.5l2.9,4.1h-1.2l-2.7-4h-0.3V182z M75.2,177.1
		h0.3c1.1,0,2.3-0.2,2.3-1.6c0-1.5-1.1-1.6-2.3-1.6h-0.3V177.1z"/>
	<path class="st0" d="M84.3,173H89v0.9h-3.7v2.7h3.6v0.9h-3.6v3.5H89v0.9h-4.7V173z"/>
	<path class="st0" d="M94.3,173H96c1.4,0,2.5,0.2,3.5,1.1c1,0.9,1.5,2.1,1.5,3.4c0,1.3-0.5,2.5-1.5,3.4c-1.1,1-2.2,1.1-3.6,1.1h-1.7
		V173z M96,181.1c1.1,0,2-0.2,2.9-0.9c0.7-0.7,1.1-1.6,1.1-2.7c0-1-0.4-2-1.2-2.7c-0.8-0.7-1.7-0.9-2.8-0.9h-0.7v7.2H96z"/>
	<path class="st0" d="M114.5,172.4l3.3,7.6l3.3-7.6l1.8,9.6h-1l-1.2-6.1h0l-2.9,6.5l-2.9-6.5h0l-1.2,6.1h-1L114.5,172.4z"/>
	<path class="st0" d="M129,179.4l-1.1,2.6h-1.1l4.2-9.5l4.1,9.5h-1.1l-1.1-2.6H129z M131,174.9l-1.5,3.6h3.1L131,174.9z"/>
	<path class="st0" d="M140.7,181.1h2.5v0.9h-3.5v-9h1V181.1z"/>
	<path class="st0" d="M149.2,182h-1v-8.1H146V173h5.4v0.9h-2.2V182z"/>
	<path class="st0" d="M163.3,173h1.5c1.6,0,3,0.6,3,2.4c0,0.7-0.3,1.4-0.9,1.8c1.1,0.3,1.7,1.2,1.7,2.3c0,1.8-1.5,2.5-3.2,2.5h-2.1
		V173z M164.3,176.9h0.4c1.1,0,2.1-0.1,2.1-1.5c0-1.4-0.9-1.5-2.1-1.5h-0.4V176.9z M164.3,181.1h1c1.1,0,2.3-0.3,2.3-1.7
		c0-1.4-1.3-1.6-2.4-1.6h-0.9V181.1z"/>
	<path class="st0" d="M173.7,173h4.7v0.9h-3.7v2.7h3.6v0.9h-3.6v3.5h3.7v0.9h-4.7V173z"/>
	<path class="st0" d="M186.6,179.8l2.6-6.9h1.1l-3.7,9.6l-3.7-9.6h1.1L186.6,179.8z"/>
	<path class="st0" d="M194.8,173h4.7v0.9h-3.7v2.7h3.6v0.9h-3.6v3.5h3.7v0.9h-4.7V173z"/>
	<path class="st0" d="M205.9,182h-1v-9h1.3c1.7,0,3.3,0.5,3.3,2.5c0,1.4-0.9,2.4-2.3,2.5l2.9,4.1h-1.2l-2.7-4h-0.3V182z
		 M205.9,177.1h0.3c1.1,0,2.3-0.2,2.3-1.6c0-1.5-1.1-1.6-2.3-1.6h-0.3V177.1z"/>
	<path class="st0" d="M216.3,179.4l-1.1,2.6h-1.1l4.2-9.5l4.1,9.5h-1.1l-1.1-2.6H216.3z M218.3,174.9l-1.5,3.6h3.1L218.3,174.9z"/>
	<path class="st0" d="M235.3,177.5c0,1.2-0.1,2.2-0.9,3.2c-0.8,1-2.1,1.5-3.3,1.5c-2.5,0-4.7-2.1-4.7-4.7c0-2.6,2.1-4.7,4.7-4.7
		c1.6,0,2.9,0.7,3.8,2l-0.7,0.7c-0.8-1.1-1.8-1.7-3.1-1.7c-2.1,0-3.7,1.7-3.7,3.8c0,1,0.4,1.9,1.1,2.6c0.7,0.7,1.6,1.2,2.6,1.2
		c1.6,0,3.2-1.2,3.2-2.8h-2.7v-0.9H235.3z"/>
	<path class="st0" d="M240.4,173h4.7v0.9h-3.7v2.7h3.6v0.9h-3.6v3.5h3.7v0.9h-4.7V173z"/>
	<path class="st0" d="M261.8,174.7c-0.4-0.6-0.8-1-1.6-1c-0.8,0-1.5,0.6-1.5,1.4c0,0.8,0.8,1.1,1.4,1.4l0.6,0.3
		c1.2,0.5,2.2,1.1,2.2,2.5c0,1.6-1.3,2.8-2.8,2.8c-1.5,0-2.5-0.9-2.8-2.3l1-0.3c0.1,0.9,0.8,1.7,1.8,1.7s1.9-0.7,1.9-1.8
		c0-1.1-0.8-1.4-1.7-1.8l-0.6-0.2c-1.1-0.5-2-1-2-2.3c0-1.4,1.2-2.3,2.5-2.3c1,0,1.9,0.5,2.3,1.4L261.8,174.7z"/>
	<path class="st0" d="M269,182h-1v-9h1.5c0.8,0,1.6,0,2.2,0.5c0.7,0.5,1,1.3,1,2.1c0,0.7-0.3,1.5-0.9,1.9c-0.6,0.5-1.4,0.6-2.1,0.6
		H269V182z M269,177.1h0.7c1.1,0,2.1-0.3,2.1-1.6c0-1.5-1.2-1.6-2.4-1.6H269V177.1z"/>
	<path class="st0" d="M277.6,173h4.7v0.9h-3.7v2.7h3.6v0.9h-3.6v3.5h3.7v0.9h-4.7V173z"/>
	<path class="st0" d="M294.5,174.9c-0.7-0.7-1.7-1.2-2.8-1.2c-2,0-3.6,1.8-3.6,3.7s1.6,3.7,3.7,3.7c1,0,2-0.5,2.7-1.2v1.2
		c-0.8,0.6-1.7,0.9-2.7,0.9c-2.6,0-4.7-2.1-4.7-4.6c0-2.6,2.1-4.7,4.7-4.7c1,0,1.9,0.3,2.7,0.9V174.9z"/>
	<path class="st0" d="M300.9,182h-1v-9h1V182z"/>
	<path class="st0" d="M307.7,179.4l-1.1,2.6h-1.1l4.2-9.5l4.1,9.5h-1.1l-1.1-2.6H307.7z M309.6,174.9l-1.5,3.6h3.1L309.6,174.9z"/>
	<path class="st0" d="M319.3,181.1h2.5v0.9h-3.5v-9h1V181.1z"/>
	<path class="st0" d="M327.8,182h-1v-8.1h-2.2V173h5.4v0.9h-2.2V182z"/>
	<path class="st0" d="M333.9,173h1.2l2.3,4l2.3-4h1.2l-3,5.2v3.9h-1v-3.9L333.9,173z"/>
</g>
</svg>
